<svg width="33" height="33" viewBox="0 0 33 33" fill="none" xmlns="http://www.w3.org/2000/svg">
<path d="M10.4392 22.1194V13.1602H8.36803V10.8643H13.2971V22.1194H10.4392Z" fill="#DA0000"/>
<path d="M24.038 13.7704C24.038 14.7497 23.5082 15.6167 22.6251 16.0985C23.8613 16.6121 24.6321 17.6879 24.6321 18.9403C24.6321 20.9632 22.8338 22.2478 20.0241 22.2478C17.2143 22.2478 15.4161 20.9793 15.4161 18.9885C15.4161 17.704 16.251 16.6121 17.5515 16.0985C16.6042 15.5685 15.9941 14.6695 15.9941 13.6902C15.9941 11.8918 17.5676 10.752 20.008 10.752C22.4805 10.752 24.038 11.924 24.038 13.7704ZM18.1134 18.6995C18.1134 19.6469 18.7878 20.1767 20.0241 20.1767C21.2603 20.1767 21.9507 19.6631 21.9507 18.6995C21.9507 17.7684 21.2603 17.2384 20.0241 17.2384C18.7877 17.2384 18.1134 17.7683 18.1134 18.6995ZM18.4025 13.9309C18.4025 14.7339 18.9805 15.1832 20.0241 15.1832C21.0677 15.1832 21.6457 14.7338 21.6457 13.9309C21.6457 13.0962 21.0677 12.6305 20.0241 12.6305C18.9804 12.6305 18.4025 13.0962 18.4025 13.9309Z" fill="#DA0000"/>
<path d="M29.3886 12.135C29.8637 13.5373 30.1047 15.0041 30.1047 16.5001C30.1047 24.0011 24.0021 30.1037 16.5009 30.1037C8.9998 30.1037 2.89708 24.0011 2.89708 16.5001C2.89708 8.99881 8.9997 2.89638 16.5008 2.89638C17.997 2.89638 19.4638 3.13721 20.8659 3.61255V0.585216C19.4496 0.196979 17.9869 0 16.5009 0C7.4029 0 0.000999451 7.4019 0.000999451 16.5001C0.000999451 25.5982 7.4029 33.0001 16.5009 33.0001C25.599 33.0001 33.0008 25.5982 33.0008 16.5001C33.0008 15.0142 32.8039 13.5514 32.4157 12.135H29.3886Z" fill="#DA0000"/>
<path d="M28.5643 4.4265V1.2627H26.2893V4.4265H23.1444V6.70134H26.2893V9.86504H28.5643V6.70134H31.7279V4.4265H28.5643Z" fill="#DA0000"/>
</svg>
